<svg transform="scale(1)" version="1.1" id="Layer_1" xmlns="http://www.w3.org/2000/svg" xmlns:xlink="http://www.w3.org/1999/xlink" x="0px" y="0px" viewBox="0 0 500 500" xml:space="preserve" class="show_show__wrapper__graphic__5Waiy "><title>React</title><style type="text/css">
	.st0{fill:#D1D3D4;}
	.st1{fill:#FFFFFF;}
	.st2{fill:#00897B;}
	.st3{fill:#231F20;}
	.st4{fill:none;}
</style><g id="desk"><path class="st0" d="M465,376.1H74.3c-0.4,0-0.7-0.3-0.7-0.7c0-0.4,0.3-0.7,0.7-0.7H465c0.4,0,0.7,0.3,0.7,0.7
		S465.4,376.1,465,376.1C465,376.1,465,376.1,465,376.1z"></path></g><g id="Plant"><path class="st0" d="M145.9,332.7c0.2-2.4-0.4-4.7-1.6-6.8c-1-1.5-2.6-2.7-3.4-4.3c-1.4-2.8-0.4-6-0.8-9c-0.3-2.6-1.6-5-3.6-6.7
		c-1.8-1.6-4.1-2.7-5.8-4.3c-2.8-2.7-3.6-6.6-5.2-10c-2.4-4.9-6.3-9-11.1-11.6c3,5.4-3.9,12.3-0.8,17.7c1,1.7,2.9,3,3.6,4.8
		c1.8,4.4-4.1,9.1-2.2,13.4c0.9,2.2,3.5,3.4,4.8,5.5c1.6,2.8,0.3,6.1,0.5,9.2c0.2,4.3,3.1,8.1,6.6,11.1c2.2,1.9,4.6,3.5,7,5.1
		c2.8,2,4,4.1,6.5,0.9C143.8,343.3,145.7,338.1,145.9,332.7z"></path><path class="st0" d="M152.2,334.7c-0.9-3.3-1.6-6.9,0-10.1c1.7-3.5,6-6,6.5-9.9c0.3-2.5-1.1-5.1-0.6-7.5s2.9-4.2,4.8-6
		c4.2-4,6.9-9.5,7.3-15.4c2.7,3.2,5.5,6.4,7,10.2s1.5,8.2-1,11.5c-0.7,0.8-1.3,1.6-1.8,2.6c-0.9,2.5,1.5,4.7,2.7,7.1
		c1.5,2.7,1.1,6-0.9,8.3c-2.5,2.7-7.3,3.8-8.5,7.1c-0.3,1.2-0.4,2.5-0.4,3.8c-0.4,4.3-4.2,8.5-9,9.5c-2.9,0.6-2.9-0.4-3.4-2.6
		C154.3,340.5,153,337.6,152.2,334.7z"></path><path class="st0" d="M142.9,310.8c-2.1-6.4-2.9-13.1-5.1-19.4c-1.9-5-4.1-9.8-6.8-14.5l8.9,3.3c2.9,1.1,6,2.3,7.3,4.8
		c2.4,4.3-1.9,9.9,0.6,14.1c0.9,1.5,2.4,2.6,3.5,4c2.6,3.3,2.2,7.8,0.8,11.6c-0.6,1.6-3.3,10.1-5.8,7.8c-1-1-1.1-4.5-1.5-5.8
		C144.3,314.8,143.5,312.8,142.9,310.8z"></path><path class="st0" d="M141.6,369.9c-1.6-11.5-2.9-21.6-2.9-21.7l-1.4,0.2c0,0.2,1.4,10.1,2.9,21.5H141.6z"></path><path class="st0" d="M153.7,369.9c1.9-14.9,3.9-26,5-27.2l-1-0.9c-1.6,1.7-3.7,14.7-5.4,28.2H153.7z"></path><path class="st0" d="M152,369.9c-1.5-27-4.2-53.8-4.3-54.1l-1.4,0.1c0,0.3,2.7,27,4.3,54L152,369.9z"></path><path class="st0" d="M127.7,353.9h39.6l-2.8,29.8c-0.5,5.1-6.2,9.1-13.2,9.1h-7.7c-6.9,0-12.7-4-13.2-9.1L127.7,353.9z"></path></g><g id="Think_bubble"><ellipse class="st1" cx="157.2" cy="170" rx="100.5" ry="76.9"></ellipse><path class="st0" d="M157.2,247.6C101.4,247.6,56,212.8,56,170s45.4-77.6,101.2-77.6s101.2,34.8,101.2,77.6S213,247.6,157.2,247.6z
		 M157.2,93.8c-55,0-99.8,34.2-99.8,76.2s44.8,76.2,99.8,76.2S257,212,257,170S212.2,93.8,157.2,93.8z"></path><path class="st1" d="M268.9,136.9c-0.5,0-1,0.1-1.4,0.2c-5.3,1.3-6.7,8.6-0.8,10.5c3.2,0.9,6.5-1,7.3-4.2c0.1-0.2,0.1-0.4,0.1-0.6
		c0.4-2.8-1.7-5.5-4.5-5.8C269.4,136.9,269.1,136.9,268.9,136.9z"></path><path class="st0" d="M268.2,148.6c-3.3,0-6-2.7-6.1-6c0.2-3,2.3-5.5,5.2-6.2c0.5-0.1,1.1-0.2,1.6-0.2l0,0c3.3,0,5.9,2.6,6,5.8
		c0,0.3,0,0.5,0,0.8c-0.2,1.9-1.3,3.6-3,4.6C270.7,148.2,269.5,148.6,268.2,148.6z M268.9,137.6c-0.4,0-0.8,0.1-1.2,0.2
		c-2.3,0.5-4,2.5-4.1,4.9c-0.1,2,1.3,3.8,3.3,4.3c2.8,0.7,5.7-0.9,6.4-3.7c0-0.2,0.1-0.4,0.1-0.5c0.3-2.5-1.4-4.7-3.9-5
		C269.3,137.6,269.1,137.6,268.9,137.6L268.9,137.6z M268.9,136.9L268.9,136.9z"></path><path class="st1" d="M283,154.1c4,0.8,4.4-6.1,0.2-5.3C280.3,149.4,280,153.5,283,154.1z"></path><path class="st0" d="M283.7,154.9c-0.3,0-0.5,0-0.8-0.1l0,0c-1.6-0.2-2.7-1.6-2.7-3.2c0-1.7,1.2-3.2,2.9-3.4
		c1.2-0.3,2.5,0.2,3.3,1.2c0.8,1.3,0.7,2.9-0.1,4.1C285.7,154.4,284.7,154.9,283.7,154.9z M283.1,153.5c0.8,0.2,1.6-0.1,2-0.7
		c0.5-0.8,0.5-1.8,0.1-2.6c-0.4-0.6-1.2-0.8-1.9-0.6c-1,0.2-1.8,1-1.8,2.1C281.6,152.5,282.3,153.3,283.1,153.5L283.1,153.5z"></path></g><g id="Character"><path class="st2" d="M391.2,280.3l29-7.3c-1.1-2.1-18.7-54.8-34.8-65.1c-13.9-11.5-41.6-12.6-73.1-13.9c-10.1-0.6-20.2,0.4-30,2.9
		c-36.7,10.1-62.5,62.2-62.5,62.2l36.2,7.1c0,0-5.8,53.8-10.8,119.4c0,0,57.7,13,147.7,7.9C392.8,393.6,390.3,289.6,391.2,280.3z"></path><polygon class="st3" points="303.1,212.3 273.2,392.1 334,396.5 347.2,202 	"></polygon><path class="st3" d="M334,397.2L334,397.2l-60.8-4.4c-0.4,0-0.7-0.4-0.6-0.8c0,0,0,0,0,0l29.9-179.8c0.1-0.3,0.3-0.5,0.5-0.6
		l44.1-10.3c0.2-0.1,0.4,0,0.6,0.1c0.2,0.1,0.3,0.4,0.2,0.6l-13.2,194.4c0,0.2-0.1,0.4-0.2,0.5C334.4,397.1,334.2,397.2,334,397.2z
		 M274,391.4l59.4,4.3l13.1-192.8l-42.7,10L274,391.4z"></path><path class="st1" d="M307.1,186l-5.6,23.5c0,0,4.8,15.8,20.7,14.6c9.5-0.8,18.2-5.9,23.6-13.8l6.9-43.3c0,0-10.4-7.9-3-32
		c-13.4,3.4-27.5,3-40.7-0.9c0,0-11.3,25.6-11.4,37.8S307.1,186,307.1,186z"></path><path class="st3" d="M320.6,224.9c-14.9,0-19.6-15-19.7-15.2c0-0.1,0-0.2,0-0.4l5.4-22.8c-2.3-0.8-9.5-4-9.4-14.6
		c0.1-12.2,11-37,11.5-38.1c0.1-0.3,0.5-0.5,0.8-0.4c13.1,3.9,27,4.2,40.3,0.9c0.2-0.1,0.5,0,0.7,0.2c0.2,0.2,0.2,0.5,0.2,0.7
		c-3.7,12.2-2.8,20.1-1.3,24.5c1.6,4.8,4,6.7,4.1,6.8c0.2,0.2,0.3,0.4,0.3,0.7l-6.9,43.3c0,0.1,0,0.2-0.1,0.3
		c-0.1,0.1-8,12.9-24.1,14.1C321.7,224.9,321.2,224.9,320.6,224.9z M302.3,209.5c0.6,1.8,5.5,15,20,13.9s22.2-12.1,23-13.3l6.8-42.7
		c-1.8-1.6-9.4-10-3.3-31.3c-13,2.9-26.5,2.6-39.3-1.1c-1.6,3.8-11,26.1-11.1,37c-0.1,11.4,8.6,13.4,9,13.4c0.2,0,0.3,0.1,0.5,0.3
		c0.1,0.2,0.1,0.4,0.1,0.5L302.3,209.5z"></path><path class="st1" d="M343.9,164.9c0.9-2,2.4-3.7,4.3-4.8c1.8-0.9,3.8-1.6,5.8-1.8c1.1-0.3,2.2-0.3,3.3-0.1c0.8,0.2,1.4,0.6,2,1.1
		c1.5,1.1,2.6,2.7,3.1,4.5c0.2,1.5,0,3-0.5,4.4c-0.4,1.6-1.1,3.1-1.9,4.5c-3.6,5.7-11.2,7.4-17,3.8c0,0-0.1-0.1-0.1-0.1"></path><path class="st3" d="M349.6,179.1c-2.5,0-5-0.7-7.1-2.1c-0.3-0.2-0.4-0.6-0.2-1s0.6-0.4,1-0.2c2.6,1.7,5.8,2.3,8.8,1.6
		c3-0.7,5.7-2.5,7.3-5.1c0.8-1.3,1.4-2.8,1.9-4.3c0.5-1.3,0.7-2.7,0.5-4.1c-0.4-1.6-1.4-3.1-2.8-4.1c-0.5-0.5-1.1-0.8-1.8-1
		c-1-0.2-2-0.2-3,0.1c-1.9,0.3-3.8,0.8-5.6,1.7c-1.8,1-3.2,2.6-4,4.5c-0.2,0.4-0.6,0.5-0.9,0.4c0,0,0,0,0,0
		c-0.4-0.2-0.5-0.6-0.4-0.9c0.9-2.2,2.5-4,4.6-5.1c1.9-1,3.9-1.6,6-1.9c1.2-0.3,2.4-0.3,3.6,0c0.8,0.3,1.6,0.7,2.3,1.3
		c1.7,1.2,2.8,2.9,3.3,4.9c0.2,1.6,0,3.2-0.5,4.7c-0.5,1.6-1.1,3.2-2,4.6c-1.9,2.9-4.8,5-8.2,5.7
		C351.4,179.1,350.5,179.1,349.6,179.1z"></path><path class="st3" d="M304.9,197.8c0,0,8.7,2.9,16.5-2.6s7.8-9.3,7.8-9.3s-11.9,4.2-21.6,0.6L304.9,197.8z"></path><path class="st3" d="M310.5,199.3c-2,0-3.9-0.3-5.8-0.8c-0.3-0.1-0.5-0.5-0.5-0.8l2.8-11.3c0-0.2,0.2-0.4,0.4-0.4
		c0.2-0.1,0.4-0.1,0.6,0c9.4,3.5,21-0.5,21.1-0.6c0.4-0.1,0.8,0.1,0.9,0.4c0,0.1,0,0.2,0,0.2c0,0.2-0.1,4.3-8.1,9.8
		C318.5,198.1,314.5,199.3,310.5,199.3z M305.8,197.3c2.1,0.5,9,1.7,15.3-2.6c5-3.4,6.7-6.2,7.2-7.7c-3.2,1-12.1,3.1-20.1,0.4
		L305.8,197.3z"></path><path class="st1" d="M324,152c0,0-10.4,10.3-8.9,12.8s7.1,2.1,7.1,2.1"></path><path class="st3" d="M321.5,167.6c-1.7,0-5.6-0.2-7-2.5c-1.6-2.7,6.5-11.1,9-13.6c0.3-0.3,0.7-0.3,1,0s0.3,0.7,0,1l0,0
		c-5.4,5.4-9.4,10.8-8.8,11.9c1,1.7,5,1.9,6.4,1.8c0.4-0.1,0.7,0.2,0.8,0.6c0.1,0.4-0.2,0.7-0.6,0.8c0,0-0.1,0-0.1,0L321.5,167.6z"></path><ellipse class="st3" transform="matrix(0.1113 -0.9938 0.9938 0.1113 144.4917 467.7183)" cx="333.8" cy="153.1" rx="2.8" ry="2"></ellipse><ellipse class="st3" transform="matrix(0.3992 -0.9169 0.9169 0.3992 52.2622 378.7263)" cx="315.1" cy="149.5" rx="2.8" ry="2"></ellipse><path class="st3" d="M331.8,179.7c-0.2,0-0.4-0.1-0.5-0.2c-6.2-6-23-9.6-23.2-9.7c-0.4-0.1-0.6-0.5-0.5-0.8
		c0.1-0.4,0.5-0.6,0.8-0.5c0.7,0.1,17.4,3.8,23.9,10c0.3,0.3,0.3,0.7,0,1C332.2,179.6,332,179.7,331.8,179.7z"></path><line class="st4" x1="398.1" y1="313.6" x2="418.8" y2="329.5"></line><path class="st3" d="M418.8,330.2c-0.2,0-0.3,0-0.4-0.1l-20.7-15.9c-0.3-0.2-0.4-0.7-0.1-1s0.7-0.4,1-0.1l20.6,15.9
		c0.3,0.2,0.4,0.7,0.1,1C419.2,330.1,419,330.2,418.8,330.2L418.8,330.2z"></path><path class="st3" d="M361.9,156.1h-0.2c-0.4-0.1-0.6-0.5-0.5-0.8c0,0,0,0,0,0c2.1-7.8,4.1-15.7,6-23.5l0.2-0.8
		c0.8-3.2,1.7-6.9,1.6-10.1c-0.1-2.5-1.2-2.8-4.7-2.8c-0.2,0-0.4-0.1-0.5-0.2c-0.1-0.1-0.2-0.3-0.2-0.5c-0.1-3.5-1.7-6.8-4.5-8.9
		c-4.7-3.4-11.5-4.1-18.8-1.9l-0.4,0.1c-7.2,2.2-13.5,4.1-21.4,4.4c-1.5,0.1-3.1,0-4.6,0c-5.6-0.5-11.3,0.5-16.5,2.7
		c-1.7,0.5-3.4,1.3-4.8,2.4c-1.4,1.4-2.6,3.1-3.3,5c-0.8,1.6-1.4,3.4-1.8,5.2c-0.8,5.5,2.8,10.5,5.1,13c1.4,1.6,3.5,3.3,5.6,2.7
		c0.4-0.1,0.8,0.1,0.9,0.5c0.1,0.4-0.1,0.7-0.5,0.9c0,0,0,0,0,0c-2.2,0.6-4.6-0.5-7-3.1s-6.3-8-5.4-14.1c0.4-1.9,1-3.8,1.9-5.6
		c0.8-2.1,2.1-3.9,3.6-5.5c1.6-1.2,3.4-2.1,5.2-2.7c2.1-0.8,4.2-1.5,6.4-2c3.5-0.6,7.1-0.9,10.6-0.7c1.5,0,3.1,0,4.6,0
		c7.7-0.3,13.9-2.2,21.1-4.3l0.4-0.1c7.7-2.3,15-1.6,20,2.1c3,2.2,4.8,5.6,5.1,9.3c2.5,0,5.4,0.3,5.5,4.2c0.1,3.5-0.8,7.2-1.6,10.5
		l-0.2,0.8c-1.9,7.9-4,15.8-6,23.5C362.4,155.9,362.2,156.1,361.9,156.1z"></path><path class="st1" d="M338.8,214.4c0,0-7.9-7.6-10-16.9s-1.3-11.3-2.7-11.6s-3.9,0.7-5.7,3.8s-1.3,14.3,1.6,18.8
		S338.8,214.4,338.8,214.4z"></path><path class="st3" d="M338.8,215.1L338.8,215.1c-0.6-0.1-14.3-1.5-17.4-6.2s-3.6-16.1-1.6-19.5s4.6-4.5,6.4-4.1
		c1.3,0.3,1.5,1.4,1.8,3.8c0.2,1.7,0.6,4.4,1.5,8.4c2,9,9.7,16.4,9.8,16.5c0.2,0.2,0.3,0.5,0.1,0.8
		C339.3,214.9,339.1,215.1,338.8,215.1z M325.5,186.6c-1.1,0-3,0.9-4.5,3.5s-1.3,13.7,1.6,18c2,3,9.8,4.7,14.4,5.3
		c-2.4-2.7-7.2-8.7-8.8-15.8c-0.9-4.1-1.3-6.7-1.5-8.5c-0.3-2-0.4-2.5-0.7-2.6C325.8,186.6,325.7,186.6,325.5,186.6z"></path><path class="st1" d="M221.9,260.2c0,0-35.2,86.5-22,112.9s142.9,38.1,142.9,38.1s16.5,7,21.6,8.1s24.5,2.2,24.5,2.2
		s-7.3,1.5-4.8,3.7s16.9,2.2,18.3-2.9s-2.6-25.6-7-29s-54.2-15.4-57.9-15.8S252,348.6,252,348.6l10.6-80.4"></path><path class="st3" d="M391.2,427.1c-3.3,0-6.3-0.5-7.5-1.6c-0.6-0.4-0.9-1.1-0.7-1.9c0.4-0.9,1.2-1.6,2.1-1.9
		c-5.9-0.4-17.1-1.2-20.8-2c-5-1.1-20.1-7.4-21.6-8.1c-6.7-0.6-130.2-12.2-143.4-38.5c-5.6-11.1-3.5-33.6,6-66.8
		c7.1-24.7,15.9-46.4,16-46.6c0.1-0.4,0.5-0.6,0.9-0.5s0.6,0.5,0.5,0.9c0,0,0,0.1,0,0.1c-0.4,0.9-34.9,86.5-22,112.3
		s141,37.6,142.3,37.7c0.1,0,0.1,0,0.2,0c0.2,0.1,16.5,7,21.5,8s24.2,2.2,24.4,2.2c0.4,0,0.6,0.3,0.7,0.6c0,0.4-0.2,0.7-0.6,0.7
		c-2.1,0.4-4.6,1.4-4.7,2c0,0.1,0.1,0.3,0.3,0.4c1.4,1.2,8.1,1.9,13.1,0.4c1.6-0.5,3.6-1.4,4.1-3c1.5-5.2-2.8-25.2-6.7-28.2
		c-4.1-3.1-53.1-15.2-57.5-15.6c-3.7-0.4-82.5-27.7-85.9-28.9c-0.3-0.1-0.5-0.4-0.5-0.8l10.6-80.4c0-0.4,0.4-0.7,0.8-0.6
		s0.7,0.4,0.6,0.8L252.8,348c28.5,9.9,82.2,28.3,85,28.6s53.5,12.4,58.2,16s8.7,24.5,7.2,29.7c-0.5,1.7-2.2,3.1-5,3.9
		C395.9,426.9,393.6,427.2,391.2,427.1z"></path><path class="st1" d="M370.7,285.4c0,0-23.6-60.4-30.2-70.4s-35.8-34.2-39.4-31.8s-2.6,5.1-1,6.9s10,7.7,10,7.7s-9.5-4.4-9.8,1.4
		s6.9,9.2,6.9,9.2s-8-5.9-8.3,0.4s5.6,8.8,5.6,8.8s-8.5-7.2-7.7,0.3c1.3,12.4,26.2,27.1,26.2,27.1l10.6,102.9
		c0,0,3.8,59.7,41.8,57.9c48.9-2.3,63-72.8,38.6-132.4"></path><path class="st3" d="M373.6,406.5c-36.8,0-40.8-58-40.9-58.5l-10.5-102.5c-3-1.8-25-15.5-26.3-27.5c-0.2-2,0.2-3.4,1.2-3.9
		c0.6-0.3,1.3-0.3,2-0.2c-0.9-1.5-1.3-3.3-1.2-5.1c0.1-1.7,0.7-2.8,1.8-3.3c0.6-0.3,1.3-0.4,2-0.3c-1.6-1.6-2.4-3.8-2.4-6.1
		c0-1.2,0.6-2.3,1.6-3c1.5-0.7,3.2-0.8,4.8-0.4c-2.3-1.6-4.4-3.3-6.4-5.2c-2-1.8-2.1-4.9-0.3-6.9c0.4-0.5,0.9-0.8,1.5-1.1
		c2.7-1.8,13.3,6.3,19.4,11.3c7.8,6.4,17.4,15.3,21,20.7c6.6,9.9,29.4,68.1,30.3,70.6c0.1,0.3,0,0.7-0.4,0.9c0,0,0,0,0,0
		c-0.4,0.1-0.8,0-0.9-0.4c0,0,0,0,0,0c-0.2-0.6-23.7-60.5-30.2-70.3c-3-4.6-11.4-12.8-20.7-20.4c-11.3-9.3-16.9-11.8-17.7-11.2
		c-1.1,0.6-1.8,1.6-2.1,2.7c0,1.2,0.4,2.3,1.2,3.2c1.2,1.4,7.5,6,9.8,7.6c0.3,0.2,0.4,0.6,0.2,0.9c-0.2,0.3-0.6,0.4-0.9,0.3
		c-1.5-0.7-5.9-2.3-7.9-1.1c-0.6,0.4-1,1.1-1,1.9c-0.2,3.2,2.4,5.7,4.4,7.2c0.8,0.4,1.6,0.9,2.3,1.4c0.3,0.2,0.4,0.6,0.2,0.9
		c-0.2,0.3-0.6,0.4-0.9,0.3c-0.8-0.4-1.6-0.9-2.4-1.4c-1.5-0.7-3.1-1.3-4-0.8c-0.6,0.3-0.9,1-1,2.1c-0.1,2.2,0.7,4.4,2.2,6
		c1.1,0.6,2.1,1.4,3.1,2.2c0.3,0.2,0.3,0.6,0.1,0.9c-0.2,0.3-0.5,0.4-0.9,0.3c-1.1-0.5-2.2-1.3-3.1-2.1c-1.3-0.7-2.5-1.1-3.1-0.8
		s-0.7,1.1-0.5,2.5c1.3,11.9,25.7,26.5,25.9,26.6c0.2,0.1,0.3,0.3,0.3,0.5l10.6,102.9c0,0.6,4.1,59,41.1,57.2
		c15.3-0.7,28.1-8.4,36.9-22.2c16.7-26.2,17.1-70.1,1.1-109.2c-0.1-0.4,0-0.8,0.4-0.9c0.4-0.1,0.8,0,0.9,0.4l0,0
		c16.2,39.5,15.7,83.9-1.2,110.5c-9.1,14.2-22.2,22.1-38,22.9C374.8,406.5,374.2,406.5,373.6,406.5z"></path><path class="st1" d="M369.5,283.1c0,0,19.1,51.8,23.9,68.9"></path><path class="st3" d="M393.4,352.7c-0.3,0-0.6-0.2-0.7-0.5c-4.8-16.9-23.7-68.3-23.9-68.8c-0.1-0.4,0.1-0.8,0.4-0.9
		c0.4-0.1,0.8,0.1,0.9,0.4c0.2,0.5,19.1,52,24,68.9c0.1,0.4-0.1,0.7-0.5,0.9c0,0,0,0,0,0C393.5,352.7,393.5,352.7,393.4,352.7z"></path><path class="st3" d="M265.6,233.3c0,1.5-2.9,28.8-2.9,28.8"></path><path class="st3" d="M262.7,262.8L262.7,262.8c-0.5,0-0.7-0.4-0.7-0.8c0,0,0,0,0-0.1c0.8-7.6,2.9-27.6,2.9-28.8
		c0-0.4,0.3-0.7,0.7-0.7c0.4,0,0.7,0.3,0.7,0.7c0,1.5-2.8,27.8-2.9,28.9C263.4,262.5,263.1,262.8,262.7,262.8z"></path></g><g id="Question_Mark"><path class="st3" d="M139.7,181.4c-0.8-10.5,3.3-17.3,14.9-25.6c10.5-7.4,13.4-11.2,13-17c-0.6-7-6.9-10.8-16.3-10.1
		c-11.7,0.9-18.3,9-18.1,22.4l-25.5,0.1c-1.1-25.6,15.6-43.6,42-45.7c23.5-1.8,41.7,11.1,43.2,30.4c0.9,11.8-4.3,20.7-17.3,30.1
		c-10.6,7.9-12.9,11-12.5,17l0.5,6l-23.1,1.8L139.7,181.4z M139.6,202.8l27.4-2.1l2.1,26.6l-27.4,2.1L139.6,202.8z"></path></g></svg>